<svg width="64" height="64" viewBox="0 0 64 64" fill="none" xmlns="http://www.w3.org/2000/svg">
<circle cx="32" cy="32" r="32" fill="#18171E"/>
<path d="M32.5 32C32.5 34.2407 30.9837 36.3546 28.3494 37.9352C25.725 39.5099 22.0671 40.5 18 40.5C13.9329 40.5 10.275 39.5099 7.65065 37.9352C5.01629 36.3546 3.5 34.2407 3.5 32C3.5 29.7593 5.01629 27.6454 7.65065 26.0648C10.275 24.4901 13.9329 23.5 18 23.5C22.0671 23.5 25.725 24.4901 28.3494 26.0648C30.9837 27.6454 32.5 29.7593 32.5 32Z" stroke="#C40000"/>
<path d="M61.5 32C61.5 34.2407 59.9837 36.3546 57.3494 37.9352C54.725 39.5099 51.0671 40.5 47 40.5C42.9329 40.5 39.275 39.5099 36.6506 37.9352C34.0163 36.3546 32.5 34.2407 32.5 32C32.5 29.7593 34.0163 27.6454 36.6506 26.0648C39.275 24.4901 42.9329 23.5 47 23.5C51.0671 23.5 54.725 24.4901 57.3494 26.0648C59.9837 27.6454 61.5 29.7593 61.5 32Z" stroke="#C40000"/>
<path d="M40.5 32C40.5 34.4245 40.0076 36.5947 39.2348 38.1404C38.447 39.7159 37.4512 40.5 36.5 40.5C35.5488 40.5 34.553 39.7159 33.7652 38.1404C32.9924 36.5947 32.5 34.4245 32.5 32C32.5 29.5755 32.9924 27.4053 33.7652 25.8596C34.553 24.2841 35.5488 23.5 36.5 23.5C37.4512 23.5 38.447 24.2841 39.2348 25.8596C40.0076 27.4053 40.5 29.5755 40.5 32Z" stroke="#C40000"/>
<path d="M32.5 32C32.5 34.4245 32.0076 36.5947 31.2348 38.1404C30.447 39.7159 29.4512 40.5 28.5 40.5C27.5488 40.5 26.553 39.7159 25.7652 38.1404C24.9924 36.5947 24.5 34.4245 24.5 32C24.5 29.5755 24.9924 27.4053 25.7652 25.8596C26.553 24.2841 27.5488 23.5 28.5 23.5C29.4512 23.5 30.447 24.2841 31.2348 25.8596C32.0076 27.4053 32.5 29.5755 32.5 32Z" stroke="#C40000"/>
</svg>
