<svg width="81" height="49" viewBox="0 0 81 49" fill="none" xmlns="http://www.w3.org/2000/svg">
<path d="M39.8002 18.1777C39.6041 20.1978 39.5 22.3169 39.5 24.5C39.5 26.6831 39.6041 28.8022 39.8002 30.8223C38.2095 37.8378 34.0365 43.5423 28.6167 46.4363C27.6931 45.2731 26.8401 43.6517 26.1054 41.6517C24.5018 37.2863 23.5 31.2224 23.5 24.5C23.5 17.7776 24.5018 11.7137 26.1054 7.34829C26.8401 5.34831 27.6931 3.72694 28.6167 2.56367C34.0365 5.45768 38.2095 11.1622 39.8002 18.1777ZM41.1998 30.8223C41.3959 28.8022 41.5 26.6831 41.5 24.5C41.5 22.3169 41.3959 20.1978 41.1998 18.1777C42.7905 11.1622 46.9635 5.45768 52.3833 2.56367C53.3069 3.72694 54.1599 5.34831 54.8946 7.34829C56.4982 11.7137 57.5 17.7776 57.5 24.5C57.5 31.2224 56.4982 37.2863 54.8946 41.6517C54.1599 43.6517 53.3069 45.2731 52.3833 46.4363C46.9635 43.5423 42.7905 37.8378 41.1998 30.8223ZM29.3067 47.207C33.9196 44.6686 37.6123 40.1985 39.6796 34.6917C39.2362 37.301 38.6284 39.6542 37.8946 41.6517C37.0921 43.8364 36.1484 45.5693 35.1257 46.7468C34.1019 47.9256 33.0442 48.5 32 48.5C31.1022 48.5 30.1944 48.0754 29.3067 47.207ZM20.5 0.5C23.0336 0.5 25.4641 1.06893 27.7038 2.10846C26.7435 3.36685 25.8901 5.03413 25.1667 7.00348C23.5129 11.5054 22.5 17.6914 22.5 24.5C22.5 31.3086 23.5129 37.4946 25.1667 41.9965C25.8901 43.9659 26.7435 45.6331 27.7038 46.8915C25.4641 47.9311 23.0336 48.5 20.5 48.5C9.53408 48.5 0.5 37.842 0.5 24.5C0.5 11.158 9.53408 0.5 20.5 0.5ZM39.6796 14.3083C37.6123 8.80148 33.9196 4.33143 29.3067 1.79297C30.1944 0.924646 31.1022 0.5 32 0.5C33.0442 0.5 34.1019 1.07441 35.1257 2.25319C36.1484 3.43071 37.0921 5.16363 37.8946 7.34829C38.6284 9.34583 39.2362 11.699 39.6796 14.3083ZM51.6932 1.79297C47.0804 4.33143 43.3877 8.80148 41.3204 14.3083C41.7638 11.699 42.3716 9.34583 43.1054 7.34829C43.9079 5.16363 44.8516 3.43071 45.8743 2.25319C46.8981 1.07441 47.9558 0.5 49 0.5C49.8978 0.5 50.8056 0.924645 51.6932 1.79297ZM55.8333 7.00348C55.1099 5.03413 54.2565 3.36685 53.2962 2.10846C55.5359 1.06893 57.9664 0.5 60.5 0.5C71.4659 0.5 80.5 11.158 80.5 24.5C80.5 37.842 71.4659 48.5 60.5 48.5C57.9664 48.5 55.5359 47.9311 53.2962 46.8915C54.2565 45.6331 55.1099 43.9659 55.8333 41.9965C57.4871 37.4946 58.5 31.3086 58.5 24.5C58.5 17.6914 57.4871 11.5054 55.8333 7.00348ZM41.3204 34.6917C43.3877 40.1985 47.0804 44.6686 51.6933 47.207C50.8056 48.0754 49.8978 48.5 49 48.5C47.9558 48.5 46.8981 47.9256 45.8743 46.7468C44.8516 45.5693 43.9079 43.8364 43.1054 41.6517C42.3716 39.6542 41.7638 37.301 41.3204 34.6917Z" stroke="#A8A8FF"/>
</svg>
