<svg width="1859" height="962" viewBox="0 0 1859 962" fill="none" xmlns="http://www.w3.org/2000/svg">
<path d="M122.184 10.6594C129.579 3.80708 139.289 0 149.371 0H247.375H465.665C471.646 0 477.55 1.34093 482.943 3.92411L579.307 50.0759C584.7 52.6591 590.604 54 596.585 54H699H929H1157.5H1262.42C1268.4 54 1274.3 52.6591 1279.69 50.0759L1376.06 3.92412C1381.45 1.34093 1387.35 0 1393.33 0H1611.62H1709.63C1719.71 0 1729.42 3.80709 1736.82 10.6595L1846.19 112.002C1854.36 119.572 1859 130.206 1859 141.343V852.996C1859 864.191 1854.31 874.874 1846.07 882.449L1770.98 951.452C1763.6 958.236 1753.94 962 1743.91 962H1680H1403.5H929H454.5H180.5H115.752C105.779 962 96.1652 958.274 88.7966 951.553L13.0445 882.46C4.73491 874.881 0 864.154 0 852.907V702.5V141.343C0 130.206 4.64352 119.572 12.813 112.002L122.184 10.6594Z" fill="#18171E"/>
<line x1="1815.75" y1="241" x2="1815.75" y2="828" stroke="white" stroke-width="1.5"/>
<line x1="46.75" y1="241" x2="46.75" y2="828" stroke="white" stroke-width="1.5"/>
<path d="M1814 734.417V424.272L1813.57 53.1705L1777.55 19H81.4919L45.4313 53.1016L45 423.715V755" stroke="#18171E" stroke-width="1.5"/>
<line x1="1523.5" y1="615" x2="1523.5" y2="894" stroke="#18171E"/>
<line x1="1490" y1="893.5" x2="1733" y2="893.5" stroke="#18171E"/>
<line x1="1593.5" y1="615" x2="1593.5" y2="894" stroke="#18171E"/>
<line x1="1490" y1="823.5" x2="1733" y2="823.5" stroke="#18171E"/>
<line x1="1490" y1="649.5" x2="1733" y2="649.5" stroke="#18171E"/>
<line x1="1663.5" y1="615" x2="1663.5" y2="894" stroke="#18171E"/>
<line x1="1490" y1="753.5" x2="1733" y2="753.5" stroke="#18171E"/>
<line x1="1558.5" y1="615" x2="1558.5" y2="894" stroke="#18171E"/>
<line x1="1490" y1="858.5" x2="1733" y2="858.5" stroke="#18171E"/>
<line x1="1490" y1="684.5" x2="1733" y2="684.5" stroke="#18171E"/>
<line x1="1628.5" y1="615" x2="1628.5" y2="894" stroke="#18171E"/>
<line x1="1490" y1="788.5" x2="1733" y2="788.5" stroke="#18171E"/>
<line x1="1489" y1="614.5" x2="1734" y2="614.5" stroke="#18171E"/>
<line x1="1698.5" y1="615" x2="1698.5" y2="894" stroke="#18171E"/>
<line x1="1733.5" y1="615" x2="1733.5" y2="894" stroke="#18171E"/>
<line x1="1489.5" y1="615" x2="1489.5" y2="894" stroke="#18171E"/>
<line x1="1490" y1="718.5" x2="1733" y2="718.5" stroke="#18171E"/>
<path d="M422.812 19.1562H201M443.812 18.5C443.812 24.299 439.111 29 433.312 29C427.514 29 422.812 24.299 422.812 18.5C422.812 12.701 427.514 8 433.312 8C439.111 8 443.812 12.701 443.812 18.5Z" stroke="white" stroke-width="1.3125"/>
<path d="M1669.81 19.1562H1448M1690.81 18.5C1690.81 24.299 1686.11 29 1680.31 29C1674.51 29 1669.81 24.299 1669.81 18.5C1669.81 12.701 1674.51 8 1680.31 8C1686.11 8 1690.81 12.701 1690.81 18.5Z" stroke="white" stroke-width="1.3125"/>
</svg>
