<svg width="1819" height="901" viewBox="0 0 1819 901" fill="none" xmlns="http://www.w3.org/2000/svg">
<path d="M1795 691.5V432.281L1794.57 72.7906L1758.55 22H62.4919L26.4313 72.7209L26 431.717V795.5" stroke="white"/>
<path d="M101.821 17.8911C109.232 6.7175 121.748 0 135.156 0H227.375H442.583C450.515 0 458.268 2.35815 464.856 6.77475L557.394 68.8085C563.982 73.2251 571.735 75.5832 579.667 75.5832H679H909H1137.5H1239.33C1247.26 75.5832 1255.02 73.2251 1261.61 68.8085L1354.14 6.77475C1360.73 2.35814 1368.49 0 1376.42 0H1591.62H1683.84C1697.25 0 1709.77 6.71751 1717.18 17.8911L1812.33 161.362C1816.68 167.916 1819 175.606 1819 183.471V676.519C1819 682.528 1817.65 688.459 1815.04 693.873L1759.4 809.411C1752.74 823.255 1738.73 832.057 1723.37 832.057H1650.5H1481.5H1360.79C1350.94 832.057 1341.44 835.688 1334.11 842.256L1279.89 890.8C1272.56 897.368 1263.06 901 1253.21 901H321H160.5H97.594C86.529 901 75.9584 896.417 68.3956 888.34L10.8016 826.83C3.86155 819.418 0 809.644 0 799.49V685.648V183.471C0 175.606 2.31842 167.916 6.66538 161.362L101.821 17.8911Z" fill="#5E5E96"/>
<line x1="1795.5" y1="217.449" x2="1795.5" y2="643.056" stroke="white"/>
<line x1="26.5" y1="217.449" x2="26.5" y2="643.056" stroke="white"/>
<path d="M131.655 868.501C131.655 868.501 131.655 868.5 131.655 868.5C131.655 862.339 126.661 857.345 120.5 857.345C114.339 857.345 109.345 862.339 109.345 868.5C109.345 874.661 114.339 879.655 120.5 879.655C126.217 879.655 130.93 875.354 131.579 869.811H352.812V869.81H1234V868.5H352V868.501H131.655Z" stroke="white" stroke-width="1.31"/>
</svg>
