<svg width="1647" height="279" viewBox="0 0 1647 279" fill="none" xmlns="http://www.w3.org/2000/svg">
<path d="M26.5572 181.482H25.7276C25.7276 163.276 24.3918 146.159 21.9609 133.286C18.4847 114.874 14.436 113.443 13.2828 113.443C12.1295 113.443 8.07253 114.874 4.59628 133.286C2.1654 146.159 0.829654 163.276 0.829654 181.482H0C0 163.27 1.33574 146.149 3.76663 133.27C6.28048 119.939 9.48294 113.179 13.2828 113.179C17.0826 113.179 20.2767 119.939 22.7906 133.27C25.2215 146.149 26.5572 163.27 26.5572 181.482Z" fill="#C40000"/>
<path d="M39.011 249.258C35.2195 249.258 32.017 242.499 29.5031 229.167C27.0723 216.288 25.7365 199.167 25.7365 180.955H26.5662C26.5662 199.162 27.9019 216.278 30.3328 229.151C33.809 247.563 37.8578 248.995 39.0193 248.995C40.1808 248.995 44.2295 247.563 47.7057 229.151C50.1366 216.278 51.4724 199.162 51.4724 180.955H52.302C52.302 199.167 50.9663 216.288 48.5354 229.167C46.0215 242.499 42.8191 249.258 39.0276 249.258H39.011Z" fill="#C40000"/>
<path d="M77.1459 181.35C77.1459 137.501 75.7984 96.2767 73.3545 65.2712C69.8645 20.9278 65.797 17.4793 64.6336 17.4793C63.4703 17.4793 59.4027 20.9278 55.9043 65.2712C53.4604 96.2767 52.1129 137.501 52.1129 181.35H51.276C51.276 137.488 52.6235 96.2514 55.0673 65.2332C57.5949 33.1246 60.8171 16.8453 64.6336 16.8453C68.4501 16.8453 71.6639 33.1246 74.1999 65.2332C76.6437 96.2514 77.9912 137.488 77.9912 181.35H77.1459Z" fill="#C40000"/>
<path d="M90.272 266.892C86.5171 266.892 83.3551 258.401 80.86 241.653C78.4556 225.474 77.1299 203.965 77.1299 181.087H77.9533C77.9533 203.958 79.279 225.461 81.6835 241.634C85.1173 264.763 89.1274 266.562 90.272 266.562C91.4166 266.562 95.4185 264.763 98.8605 241.634C101.265 225.461 102.591 203.958 102.591 181.087H103.414C103.414 203.965 102.088 225.474 99.684 241.653C97.1972 258.401 94.0269 266.892 90.272 266.892Z" fill="#C40000"/>
<path d="M129.272 181.613H128.438C128.438 158.25 127.088 136.286 124.647 119.766C121.147 96.1402 117.072 94.3028 115.914 94.3028C114.756 94.3028 110.673 96.1402 107.181 119.766C104.74 136.286 103.39 158.25 103.39 181.613H102.556C102.556 158.244 103.906 136.273 106.348 119.746C108.881 102.639 112.098 93.965 115.914 93.965C119.73 93.965 122.947 102.639 125.48 119.746C127.922 136.273 129.272 158.244 129.272 181.613Z" fill="#C40000"/>
<path d="M141.825 249.257C138.025 249.257 134.823 242.498 132.301 229.167C129.87 216.288 128.526 199.166 128.526 180.955H129.355C129.355 199.161 130.699 216.278 133.13 229.151C136.615 247.562 140.672 248.994 141.825 248.994C142.978 248.994 147.044 247.562 150.52 229.151C152.951 216.278 154.295 199.161 154.295 180.955H155.124C155.124 199.166 153.78 216.288 151.349 229.167C148.827 242.498 145.625 249.257 141.825 249.257Z" fill="#C40000"/>
<path d="M179.983 181.482C179.983 163.276 178.647 146.159 176.225 133.286C172.757 114.874 168.716 113.443 167.555 113.443C166.393 113.443 162.353 114.874 158.885 133.286C156.462 146.159 155.127 163.276 155.127 181.482H154.297C154.297 163.27 155.633 146.149 158.064 133.27C160.577 119.938 163.772 113.179 167.563 113.179C171.355 113.179 174.549 119.938 177.063 133.27C179.485 146.149 180.829 163.27 180.829 181.482H179.983Z" fill="#C40000"/>
<path d="M193.269 272.157C189.51 272.157 186.344 263.144 183.852 245.369C181.45 228.197 180.118 205.369 180.118 181.087H180.941C180.941 205.362 182.265 228.183 184.666 245.348C188.104 269.897 192.109 271.806 193.26 271.806C194.412 271.806 198.417 269.897 201.854 245.348C204.256 228.183 205.58 205.362 205.58 181.087H206.402C206.402 205.369 205.078 228.197 202.669 245.369C200.177 263.144 197.01 272.157 193.252 272.157H193.269Z" fill="#C40000"/>
<path d="M231.412 181.613C231.412 146.955 230.07 114.371 227.627 89.8645C224.133 54.8155 220.056 52.0897 218.889 52.0897C217.721 52.0897 213.652 54.8155 210.159 89.8645C207.716 114.371 206.373 146.955 206.373 181.613H205.539C205.539 146.945 206.882 114.351 209.333 89.8344C211.86 64.4558 215.086 51.5887 218.897 51.5887C222.707 51.5887 225.934 64.4558 228.461 89.8344C230.904 114.351 232.255 146.945 232.255 181.613H231.412Z" fill="#C40000"/>
<path d="M244.709 249.257C240.909 249.257 237.707 242.498 235.193 229.167C232.762 216.288 231.418 199.166 231.418 180.955H232.248C232.248 199.161 233.584 216.278 236.014 229.151C239.491 247.562 243.548 248.994 244.701 248.994C245.854 248.994 249.911 247.562 253.396 229.151C255.827 216.278 257.162 199.161 257.162 180.955H257.992C257.992 199.166 256.656 216.288 254.217 229.167C251.695 242.498 248.492 249.257 244.701 249.257H244.709Z" fill="#C40000"/>
<path d="M283.671 181.482H282.841C282.841 163.276 281.506 146.159 279.083 133.286C275.615 114.874 271.575 113.443 270.421 113.443C269.268 113.443 265.228 114.874 261.76 133.286C259.337 146.159 258.001 163.276 258.001 181.482H257.172C257.172 163.27 258.508 146.149 260.93 133.27C263.436 119.939 266.63 113.179 270.421 113.179C274.213 113.179 277.399 119.939 279.913 133.27C282.335 146.149 283.671 163.27 283.671 181.482Z" fill="#C40000"/>
<path d="M296.025 266.893C292.211 266.893 288.991 258.401 286.457 241.653C284.014 225.474 282.668 203.965 282.668 181.087H283.504C283.504 203.958 284.851 225.461 287.293 241.634C290.789 264.763 294.863 266.562 296.025 266.562C297.188 266.562 301.261 264.763 304.758 241.634C307.2 225.461 308.547 203.958 308.547 181.087H309.383C309.383 203.965 308.036 225.474 305.594 241.653C303.068 258.401 299.848 266.893 296.025 266.893Z" fill="#C40000"/>
<path d="M335.237 181.35H334.404C334.404 133.011 333.055 87.5652 330.615 53.3847C327.118 4.50056 323.045 0.698844 321.879 0.698844C320.714 0.698844 316.641 4.50056 313.144 53.3847C310.695 87.5652 309.355 133.011 309.355 181.35H308.522C308.522 132.997 309.871 87.5372 312.311 53.3428C314.842 17.9463 318.065 0 321.879 0C325.693 0 328.916 17.9463 331.448 53.3428C333.896 87.5372 335.237 132.997 335.237 181.35Z" fill="#C40000"/>
<path d="M347.612 249.257C343.804 249.257 340.601 242.498 338.079 229.167C335.64 216.288 334.304 199.166 334.304 180.955H335.134C335.134 199.161 336.478 216.278 338.909 229.151C342.394 247.562 346.451 248.994 347.612 248.994C348.774 248.994 352.831 247.562 356.315 229.151C358.754 216.278 360.09 199.161 360.09 180.955H360.92C360.92 199.166 359.576 216.288 357.145 229.167C354.623 242.498 351.412 249.257 347.612 249.257Z" fill="#C40000"/>
<path d="M386.629 181.482H385.8C385.8 163.276 384.464 146.159 382.033 133.286C378.565 114.874 374.516 113.443 373.355 113.443C372.193 113.443 368.153 114.874 364.677 133.286C362.246 146.159 360.91 163.276 360.91 181.482H360.08C360.08 163.27 361.416 146.149 363.847 133.27C366.361 119.939 369.555 113.179 373.346 113.179C377.138 113.179 380.332 119.939 382.854 133.27C385.285 146.149 386.621 163.27 386.621 181.482H386.629Z" fill="#C40000"/>
<path d="M399.074 249.258C395.282 249.258 392.08 242.498 389.566 229.167C387.135 216.288 385.799 199.167 385.799 180.955H386.629C386.629 199.161 387.965 216.278 390.396 229.151C393.872 247.563 397.912 248.994 399.074 248.994C400.235 248.994 404.276 247.563 407.752 229.151C410.183 216.278 411.519 199.161 411.519 180.955H412.348C412.348 199.167 411.013 216.288 408.582 229.167C406.068 242.498 402.874 249.258 399.082 249.258H399.074Z" fill="#C40000"/>
<path d="M438.222 181.614H437.387C437.387 151.095 436.044 122.403 433.6 100.823C430.104 69.9598 426.032 67.5596 424.864 67.5596C423.696 67.5596 419.625 69.9598 416.129 100.823C413.684 122.403 412.341 151.095 412.341 181.614H411.507C411.507 151.086 412.85 122.385 415.294 100.796C417.822 78.4488 421.043 67.1184 424.856 67.1184C428.669 67.1184 431.889 78.4488 434.417 100.796C436.862 122.385 438.205 151.086 438.205 181.614H438.222Z" fill="#C40000"/>
<path d="M450.494 266.893C446.743 266.893 443.574 258.376 441.087 241.576C438.682 225.348 437.36 203.772 437.36 180.824H438.181C438.181 203.766 439.503 225.334 441.908 241.557C445.347 264.757 449.353 266.561 450.503 266.561C451.652 266.561 455.658 264.757 459.097 241.557C461.502 225.334 462.824 203.766 462.824 180.824H463.645C463.645 203.772 462.323 225.348 459.918 241.576C457.431 258.376 454.262 266.893 450.511 266.893H450.494Z" fill="#C40000"/>
<path d="M489.443 181.482H488.614C488.614 163.276 487.278 146.159 484.855 133.286C481.396 114.875 477.355 113.443 476.202 113.443C475.049 113.443 471.017 114.875 467.549 133.286C465.126 146.159 463.79 163.276 463.79 181.482H462.961C462.961 163.271 464.296 146.149 466.719 133.27C469.225 119.939 472.419 113.18 476.202 113.18C479.985 113.18 483.171 119.939 485.685 133.27C488.108 146.149 489.443 163.271 489.443 181.482Z" fill="#C40000"/>
<path d="M501.856 249.258C498.073 249.258 494.887 242.499 492.373 229.167C489.95 216.289 488.614 199.167 488.614 180.956H489.444C489.444 199.162 490.78 216.278 493.202 229.152C496.662 247.563 500.703 248.995 501.856 248.995C503.009 248.995 507.041 247.563 510.509 229.152C512.932 216.278 514.267 199.162 514.267 180.956H515.097C515.097 199.167 513.761 216.289 511.339 229.167C508.833 242.499 505.639 249.258 501.856 249.258Z" fill="#C40000"/>
<path d="M540.867 181.482H540.037C540.037 163.276 538.693 146.159 536.263 133.286C532.786 114.874 528.729 113.443 527.568 113.443C526.406 113.443 522.349 114.874 518.873 133.286C516.442 146.159 515.098 163.276 515.098 181.482H514.268C514.268 163.27 515.613 146.149 518.043 133.27C520.566 119.939 523.768 113.179 527.568 113.179C531.368 113.179 534.57 119.939 537.092 133.27C539.523 146.149 540.867 163.27 540.867 181.482Z" fill="#C40000"/>
<path d="M553.27 275.578C549.454 275.578 546.237 266.228 543.704 247.784C541.262 229.968 539.912 206.281 539.912 181.087H540.746C540.746 206.274 542.096 229.953 544.537 247.763C548.029 273.233 552.103 275.214 553.27 275.214C554.437 275.214 558.511 273.233 562.003 247.763C564.444 229.953 565.794 206.274 565.794 181.087H566.628C566.628 206.281 565.278 229.968 562.836 247.784C560.303 266.228 557.087 275.578 553.27 275.578Z" fill="#C40000"/>
<path d="M591.628 181.613C591.628 154.743 590.283 129.48 587.843 110.48C584.351 83.3066 580.283 81.1933 579.114 81.1933C577.944 81.1933 573.876 83.3066 570.384 110.48C567.945 129.48 566.6 154.743 566.6 181.613H565.764C565.764 154.735 567.109 129.465 569.557 110.457C572.088 90.7808 575.304 80.8049 579.122 80.8049C582.94 80.8049 586.156 90.7808 588.687 110.457C591.126 129.465 592.48 154.735 592.48 181.613H591.628Z" fill="#C40000"/>
<path d="M604.748 249.258C600.956 249.258 597.762 242.498 595.248 229.167C592.826 216.288 591.482 199.167 591.482 180.955H592.311C592.311 199.161 593.647 216.278 596.07 229.151C599.537 247.563 603.578 248.994 604.739 248.994C605.901 248.994 609.941 247.563 613.409 229.151C615.832 216.278 617.168 199.161 617.168 180.955H617.997C617.997 199.167 616.662 216.288 614.231 229.167C611.717 242.498 608.523 249.258 604.731 249.258H604.748Z" fill="#C40000"/>
<path d="M642.935 181.482C642.935 163.276 641.599 146.159 639.168 133.286C635.692 114.874 631.635 113.442 630.481 113.442C629.328 113.442 625.271 114.874 621.795 133.286C619.364 146.159 618.028 163.276 618.028 181.482H617.199C617.199 163.27 618.535 146.149 620.974 133.27C623.488 119.938 626.69 113.179 630.49 113.179C634.29 113.179 637.492 119.938 640.006 133.27C642.437 146.149 643.781 163.27 643.781 181.482H642.935Z" fill="#C40000"/>
<path d="M656.266 279C652.445 279 649.225 269.311 646.697 250.2C644.252 231.738 642.901 207.193 642.901 181.087H643.735C643.735 207.186 645.078 231.723 647.523 250.177C651.019 276.57 655.098 278.623 656.258 278.623C657.418 278.623 661.498 276.57 664.994 250.177C667.438 231.723 668.781 207.186 668.781 181.087H669.616C669.616 207.193 668.273 231.738 665.82 250.2C663.292 269.311 660.071 279 656.25 279H656.266Z" fill="#C40000"/>
<path d="M695.034 181.35H694.211C694.211 159.11 692.886 138.201 690.483 122.475C687.043 99.9841 683.036 98.235 681.892 98.235C680.748 98.235 676.74 99.9841 673.301 122.475C670.898 138.201 669.573 159.11 669.573 181.35H668.75C668.75 159.104 670.075 138.188 672.478 122.456C674.963 106.17 678.131 97.9135 681.892 97.9135C685.653 97.9135 688.813 106.17 691.306 122.456C693.709 138.188 695.034 159.104 695.034 181.35Z" fill="#C40000"/>
<path d="M707.603 249.258C703.82 249.258 700.626 242.499 698.112 229.167C695.689 216.288 694.353 199.167 694.353 180.955H695.183C695.183 199.162 696.519 216.278 698.941 229.151C702.409 247.563 706.45 248.995 707.603 248.995C708.756 248.995 712.797 247.563 716.265 229.151C718.687 216.278 720.023 199.162 720.023 180.955H720.852C720.852 199.167 719.517 216.288 717.094 229.167C714.58 242.499 711.394 249.258 707.603 249.258Z" fill="#C40000"/>
<path d="M746.634 181.482H745.804C745.804 163.276 744.46 146.159 742.029 133.286C738.545 114.874 734.488 113.443 733.326 113.443C732.165 113.443 728.108 114.874 724.623 133.286C722.184 146.159 720.848 163.276 720.848 181.482H720.018C720.018 163.27 721.362 146.149 723.793 133.27C726.315 119.939 729.526 113.179 733.326 113.179C737.126 113.179 740.337 119.939 742.859 133.27C745.298 146.149 746.634 163.27 746.634 181.482Z" fill="#C40000"/>
<path d="M759.118 249.258C755.318 249.258 752.108 242.499 749.586 229.167C747.146 216.288 745.811 199.167 745.811 180.955H746.64C746.64 199.161 747.984 216.278 750.415 229.151C753.9 247.563 757.957 248.994 759.118 248.994C760.28 248.994 764.337 247.563 767.821 229.151C770.261 216.278 771.596 199.161 771.596 180.955H772.426C772.426 199.167 771.082 216.288 768.651 229.167C766.129 242.499 762.918 249.258 759.118 249.258Z" fill="#C40000"/>
<path d="M798.013 181.613H797.192C797.192 144.429 795.869 109.471 793.463 83.1785C790.021 45.5753 786.021 42.6509 784.871 42.6509C783.721 42.6509 779.721 45.5753 776.279 83.1785C773.873 109.471 772.55 144.429 772.55 181.613H771.729C771.729 144.419 773.051 109.45 775.458 83.1462C777.947 55.9182 781.109 42.1133 784.871 42.1133C788.633 42.1133 791.787 55.9182 794.284 83.1462C796.691 109.45 798.013 144.419 798.013 181.613Z" fill="#C40000"/>
<path d="M810.585 249.258C806.794 249.258 803.599 242.499 801.086 229.167C798.655 216.288 797.319 199.167 797.319 180.955H798.149C798.149 199.161 799.484 216.278 801.915 229.151C805.383 247.563 809.432 248.995 810.593 248.995C811.755 248.995 815.795 247.563 819.271 229.151C821.702 216.278 823.038 199.161 823.038 180.955H823.868C823.868 199.167 822.532 216.288 820.101 229.167C817.587 242.499 814.393 249.258 810.593 249.258H810.585Z" fill="#C40000"/>
<path d="M849.557 181.482H848.728C848.728 163.276 847.392 146.159 844.961 133.286C841.485 114.874 837.436 113.443 836.283 113.443C835.13 113.443 831.073 114.874 827.596 133.286C825.165 146.159 823.83 163.276 823.83 181.482H823C823 163.27 824.336 146.149 826.767 133.27C829.28 119.939 832.483 113.179 836.283 113.179C840.083 113.179 843.277 119.939 845.791 133.27C848.221 146.149 849.557 163.27 849.557 181.482Z" fill="#C40000"/>
<path d="M862.011 249.258C858.219 249.258 855.017 242.499 852.503 229.167C850.072 216.288 848.737 199.167 848.737 180.955H849.566C849.566 199.162 850.902 216.278 853.333 229.151C856.809 247.563 860.858 248.995 862.019 248.995C863.181 248.995 867.23 247.563 870.706 229.151C873.137 216.278 874.472 199.162 874.472 180.955H875.302C875.302 199.167 873.966 216.288 871.535 229.167C869.022 242.499 865.819 249.258 862.028 249.258H862.011Z" fill="#C40000"/>
<path d="M900.146 181.35C900.146 137.501 898.798 96.2767 896.355 65.2712C892.865 20.9278 888.797 17.4793 887.634 17.4793C886.47 17.4793 882.403 20.9278 878.904 65.2712C876.46 96.2767 875.113 137.501 875.113 181.35H874.276C874.276 137.488 875.623 96.2514 878.067 65.2332C880.595 33.1246 883.817 16.8453 887.634 16.8453C891.45 16.8453 894.664 33.1246 897.2 65.2332C899.644 96.2514 900.991 137.488 900.991 181.35H900.146Z" fill="#C40000"/>
<path d="M913.272 266.892C909.517 266.892 906.355 258.401 903.86 241.653C901.456 225.474 900.13 203.965 900.13 181.087H900.953C900.953 203.958 902.279 225.461 904.683 241.634C908.117 264.763 912.127 266.562 913.272 266.562C914.417 266.562 918.419 264.763 921.861 241.634C924.265 225.461 925.591 203.958 925.591 181.087H926.414C926.414 203.965 925.088 225.474 922.684 241.653C920.197 258.401 917.027 266.892 913.272 266.892Z" fill="#C40000"/>
<path d="M952.272 181.613H951.438C951.438 158.25 950.088 136.286 947.647 119.766C944.147 96.1402 940.072 94.3028 938.914 94.3028C937.756 94.3028 933.673 96.1402 930.181 119.766C927.74 136.286 926.39 158.25 926.39 181.613H925.556C925.556 158.244 926.906 136.273 929.348 119.746C931.881 102.639 935.098 93.965 938.914 93.965C942.73 93.965 945.947 102.639 948.48 119.746C950.922 136.273 952.272 158.244 952.272 181.613Z" fill="#C40000"/>
<path d="M964.825 249.257C961.025 249.257 957.823 242.498 955.301 229.167C952.87 216.288 951.526 199.166 951.526 180.955H952.355C952.355 199.161 953.699 216.278 956.13 229.151C959.615 247.562 963.672 248.994 964.825 248.994C965.978 248.994 970.044 247.562 973.52 229.151C975.951 216.278 977.295 199.161 977.295 180.955H978.124C978.124 199.166 976.78 216.288 974.349 229.167C971.827 242.498 968.625 249.257 964.825 249.257Z" fill="#C40000"/>
<path d="M1002.98 181.482C1002.98 163.276 1001.65 146.159 999.225 133.286C995.757 114.874 991.716 113.443 990.555 113.443C989.393 113.443 985.353 114.874 981.885 133.286C979.462 146.159 978.127 163.276 978.127 181.482H977.297C977.297 163.27 978.633 146.149 981.064 133.27C983.577 119.938 986.772 113.179 990.563 113.179C994.355 113.179 997.549 119.938 1000.06 133.27C1002.49 146.149 1003.83 163.27 1003.83 181.482H1002.98Z" fill="#C40000"/>
<path d="M1016.27 272.157C1012.51 272.157 1009.34 263.144 1006.85 245.369C1004.45 228.197 1003.12 205.369 1003.12 181.087H1003.94C1003.94 205.362 1005.26 228.183 1007.67 245.348C1011.1 269.897 1015.11 271.806 1016.26 271.806C1017.41 271.806 1021.42 269.897 1024.85 245.348C1027.26 228.183 1028.58 205.362 1028.58 181.087H1029.4C1029.4 205.369 1028.08 228.197 1025.67 245.369C1023.18 263.144 1020.01 272.157 1016.25 272.157H1016.27Z" fill="#C40000"/>
<path d="M1054.41 181.613C1054.41 146.955 1053.07 114.371 1050.63 89.8645C1047.13 54.8155 1043.06 52.0897 1041.89 52.0897C1040.72 52.0897 1036.65 54.8155 1033.16 89.8645C1030.72 114.371 1029.37 146.955 1029.37 181.613H1028.54C1028.54 146.945 1029.88 114.351 1032.33 89.8344C1034.86 64.4558 1038.09 51.5887 1041.9 51.5887C1045.71 51.5887 1048.93 64.4558 1051.46 89.8344C1053.9 114.351 1055.25 146.945 1055.25 181.613H1054.41Z" fill="#C40000"/>
<path d="M1067.71 249.257C1063.91 249.257 1060.71 242.498 1058.19 229.167C1055.76 216.288 1054.42 199.166 1054.42 180.955H1055.25C1055.25 199.161 1056.58 216.278 1059.01 229.151C1062.49 247.562 1066.55 248.994 1067.7 248.994C1068.85 248.994 1072.91 247.562 1076.4 229.151C1078.83 216.278 1080.16 199.161 1080.16 180.955H1080.99C1080.99 199.166 1079.66 216.288 1077.22 229.167C1074.7 242.498 1071.49 249.257 1067.7 249.257H1067.71Z" fill="#C40000"/>
<path d="M1106.67 181.482H1105.84C1105.84 163.276 1104.51 146.159 1102.08 133.286C1098.62 114.874 1094.57 113.443 1093.42 113.443C1092.27 113.443 1088.23 114.874 1084.76 133.286C1082.34 146.159 1081 163.276 1081 181.482H1080.17C1080.17 163.27 1081.51 146.149 1083.93 133.27C1086.44 119.939 1089.63 113.179 1093.42 113.179C1097.21 113.179 1100.4 119.939 1102.91 133.27C1105.34 146.149 1106.67 163.27 1106.67 181.482Z" fill="#C40000"/>
<path d="M1119.03 266.893C1115.21 266.893 1111.99 258.401 1109.46 241.653C1107.01 225.474 1105.67 203.965 1105.67 181.087H1106.5C1106.5 203.958 1107.85 225.461 1110.29 241.634C1113.79 264.763 1117.86 266.562 1119.03 266.562C1120.19 266.562 1124.26 264.763 1127.76 241.634C1130.2 225.461 1131.55 203.958 1131.55 181.087H1132.38C1132.38 203.965 1131.04 225.474 1128.59 241.653C1126.07 258.401 1122.85 266.893 1119.03 266.893Z" fill="#C40000"/>
<path d="M1158.24 181.35H1157.4C1157.4 133.011 1156.06 87.5652 1153.62 53.3847C1150.12 4.50056 1146.05 0.698844 1144.88 0.698844C1143.71 0.698844 1139.64 4.50056 1136.14 53.3847C1133.7 87.5652 1132.35 133.011 1132.35 181.35H1131.52C1131.52 132.997 1132.87 87.5372 1135.31 53.3428C1137.84 17.9463 1141.07 0 1144.88 0C1148.69 0 1151.92 17.9463 1154.45 53.3428C1156.9 87.5372 1158.24 132.997 1158.24 181.35Z" fill="#C40000"/>
<path d="M1170.61 249.257C1166.8 249.257 1163.6 242.498 1161.08 229.167C1158.64 216.288 1157.3 199.166 1157.3 180.955H1158.13C1158.13 199.161 1159.48 216.278 1161.91 229.151C1165.39 247.562 1169.45 248.994 1170.61 248.994C1171.77 248.994 1175.83 247.562 1179.32 229.151C1181.75 216.278 1183.09 199.161 1183.09 180.955H1183.92C1183.92 199.166 1182.58 216.288 1180.14 229.167C1177.62 242.498 1174.41 249.257 1170.61 249.257Z" fill="#C40000"/>
<path d="M1209.63 181.482H1208.8C1208.8 163.276 1207.46 146.159 1205.03 133.286C1201.57 114.874 1197.52 113.443 1196.35 113.443C1195.19 113.443 1191.15 114.874 1187.68 133.286C1185.25 146.159 1183.91 163.276 1183.91 181.482H1183.08C1183.08 163.27 1184.42 146.149 1186.85 133.27C1189.36 119.939 1192.55 113.179 1196.35 113.179C1200.14 113.179 1203.33 119.939 1205.85 133.27C1208.29 146.149 1209.62 163.27 1209.62 181.482H1209.63Z" fill="#C40000"/>
<path d="M1222.07 249.258C1218.28 249.258 1215.08 242.498 1212.57 229.167C1210.14 216.288 1208.8 199.167 1208.8 180.955H1209.63C1209.63 199.161 1210.96 216.278 1213.4 229.151C1216.87 247.563 1220.91 248.994 1222.07 248.994C1223.24 248.994 1227.28 247.563 1230.75 229.151C1233.18 216.278 1234.52 199.161 1234.52 180.955H1235.35C1235.35 199.167 1234.01 216.288 1231.58 229.167C1229.07 242.498 1225.87 249.258 1222.08 249.258H1222.07Z" fill="#C40000"/>
<path d="M1261.22 181.614H1260.39C1260.39 151.095 1259.04 122.403 1256.6 100.823C1253.1 69.9598 1249.03 67.5596 1247.86 67.5596C1246.7 67.5596 1242.62 69.9598 1239.13 100.823C1236.68 122.403 1235.34 151.095 1235.34 181.614H1234.51C1234.51 151.086 1235.85 122.385 1238.29 100.796C1240.82 78.4488 1244.04 67.1184 1247.86 67.1184C1251.67 67.1184 1254.89 78.4488 1257.42 100.796C1259.86 122.385 1261.21 151.086 1261.21 181.614H1261.22Z" fill="#C40000"/>
<path d="M1273.49 266.893C1269.74 266.893 1266.57 258.376 1264.09 241.576C1261.68 225.348 1260.36 203.772 1260.36 180.824H1261.18C1261.18 203.766 1262.5 225.334 1264.91 241.557C1268.35 264.757 1272.35 266.561 1273.5 266.561C1274.65 266.561 1278.66 264.757 1282.1 241.557C1284.5 225.334 1285.82 203.766 1285.82 180.824H1286.64C1286.64 203.772 1285.32 225.348 1282.92 241.576C1280.43 258.376 1277.26 266.893 1273.51 266.893H1273.49Z" fill="#C40000"/>
<path d="M1312.44 181.482H1311.61C1311.61 163.276 1310.28 146.159 1307.86 133.286C1304.4 114.875 1300.36 113.443 1299.2 113.443C1298.05 113.443 1294.02 114.875 1290.55 133.286C1288.13 146.159 1286.79 163.276 1286.79 181.482H1285.96C1285.96 163.271 1287.3 146.149 1289.72 133.27C1292.22 119.939 1295.42 113.18 1299.2 113.18C1302.99 113.18 1306.17 119.939 1308.68 133.27C1311.11 146.149 1312.44 163.271 1312.44 181.482Z" fill="#C40000"/>
<path d="M1324.86 249.258C1321.07 249.258 1317.89 242.499 1315.37 229.167C1312.95 216.289 1311.61 199.167 1311.61 180.956H1312.44C1312.44 199.162 1313.78 216.278 1316.2 229.152C1319.66 247.563 1323.7 248.995 1324.86 248.995C1326.01 248.995 1330.04 247.563 1333.51 229.152C1335.93 216.278 1337.27 199.162 1337.27 180.956H1338.1C1338.1 199.167 1336.76 216.289 1334.34 229.167C1331.83 242.499 1328.64 249.258 1324.86 249.258Z" fill="#C40000"/>
<path d="M1363.87 181.482H1363.04C1363.04 163.276 1361.69 146.159 1359.26 133.286C1355.79 114.874 1351.73 113.443 1350.57 113.443C1349.41 113.443 1345.35 114.874 1341.87 133.286C1339.44 146.159 1338.1 163.276 1338.1 181.482H1337.27C1337.27 163.27 1338.61 146.149 1341.04 133.27C1343.57 119.939 1346.77 113.179 1350.57 113.179C1354.37 113.179 1357.57 119.939 1360.09 133.27C1362.52 146.149 1363.87 163.27 1363.87 181.482Z" fill="#C40000"/>
<path d="M1376.27 275.578C1372.45 275.578 1369.24 266.228 1366.7 247.784C1364.26 229.968 1362.91 206.281 1362.91 181.087H1363.75C1363.75 206.274 1365.1 229.953 1367.54 247.763C1371.03 273.233 1375.1 275.214 1376.27 275.214C1377.44 275.214 1381.51 273.233 1385 247.763C1387.44 229.953 1388.79 206.274 1388.79 181.087H1389.63C1389.63 206.281 1388.28 229.968 1385.84 247.784C1383.3 266.228 1380.09 275.578 1376.27 275.578Z" fill="#C40000"/>
<path d="M1414.63 181.613C1414.63 154.743 1413.28 129.48 1410.84 110.48C1407.35 83.3066 1403.28 81.1933 1402.11 81.1933C1400.94 81.1933 1396.88 83.3066 1393.38 110.48C1390.94 129.48 1389.6 154.743 1389.6 181.613H1388.76C1388.76 154.735 1390.11 129.465 1392.56 110.457C1395.09 90.7808 1398.3 80.8049 1402.12 80.8049C1405.94 80.8049 1409.16 90.7808 1411.69 110.457C1414.13 129.465 1415.48 154.735 1415.48 181.613H1414.63Z" fill="#C40000"/>
<path d="M1427.75 249.258C1423.96 249.258 1420.76 242.498 1418.25 229.167C1415.83 216.288 1414.48 199.167 1414.48 180.955H1415.31C1415.31 199.161 1416.65 216.278 1419.07 229.151C1422.54 247.563 1426.58 248.994 1427.74 248.994C1428.9 248.994 1432.94 247.563 1436.41 229.151C1438.83 216.278 1440.17 199.161 1440.17 180.955H1441C1441 199.167 1439.66 216.288 1437.23 229.167C1434.72 242.498 1431.52 249.258 1427.73 249.258H1427.75Z" fill="#C40000"/>
<path d="M1465.93 181.482C1465.93 163.276 1464.6 146.159 1462.17 133.286C1458.69 114.874 1454.63 113.442 1453.48 113.442C1452.33 113.442 1448.27 114.874 1444.8 133.286C1442.36 146.159 1441.03 163.276 1441.03 181.482H1440.2C1440.2 163.27 1441.53 146.149 1443.97 133.27C1446.49 119.938 1449.69 113.179 1453.49 113.179C1457.29 113.179 1460.49 119.938 1463.01 133.27C1465.44 146.149 1466.78 163.27 1466.78 181.482H1465.93Z" fill="#C40000"/>
<path d="M1479.27 279C1475.45 279 1472.22 269.311 1469.7 250.2C1467.25 231.738 1465.9 207.193 1465.9 181.087H1466.73C1466.73 207.186 1468.08 231.723 1470.52 250.177C1474.02 276.57 1478.1 278.623 1479.26 278.623C1480.42 278.623 1484.5 276.57 1487.99 250.177C1490.44 231.723 1491.78 207.186 1491.78 181.087H1492.62C1492.62 207.193 1491.27 231.738 1488.82 250.2C1486.29 269.311 1483.07 279 1479.25 279H1479.27Z" fill="#C40000"/>
<path d="M1518.03 181.35H1517.21C1517.21 159.11 1515.89 138.201 1513.48 122.475C1510.04 99.9841 1506.04 98.235 1504.89 98.235C1503.75 98.235 1499.74 99.9841 1496.3 122.475C1493.9 138.201 1492.57 159.11 1492.57 181.35H1491.75C1491.75 159.104 1493.07 138.188 1495.48 122.456C1497.96 106.17 1501.13 97.9135 1504.89 97.9135C1508.65 97.9135 1511.81 106.17 1514.31 122.456C1516.71 138.188 1518.03 159.104 1518.03 181.35Z" fill="#C40000"/>
<path d="M1530.6 249.258C1526.82 249.258 1523.63 242.499 1521.11 229.167C1518.69 216.288 1517.35 199.167 1517.35 180.955H1518.18C1518.18 199.162 1519.52 216.278 1521.94 229.151C1525.41 247.563 1529.45 248.995 1530.6 248.995C1531.76 248.995 1535.8 247.563 1539.26 229.151C1541.69 216.278 1543.02 199.162 1543.02 180.955H1543.85C1543.85 199.167 1542.52 216.288 1540.09 229.167C1537.58 242.499 1534.39 249.258 1530.6 249.258Z" fill="#C40000"/>
<path d="M1569.63 181.482H1568.8C1568.8 163.276 1567.46 146.159 1565.03 133.286C1561.54 114.874 1557.49 113.443 1556.33 113.443C1555.16 113.443 1551.11 114.874 1547.62 133.286C1545.18 146.159 1543.85 163.276 1543.85 181.482H1543.02C1543.02 163.27 1544.36 146.149 1546.79 133.27C1549.32 119.939 1552.53 113.179 1556.33 113.179C1560.13 113.179 1563.34 119.939 1565.86 133.27C1568.3 146.149 1569.63 163.27 1569.63 181.482Z" fill="#C40000"/>
<path d="M1582.12 249.258C1578.32 249.258 1575.11 242.499 1572.59 229.167C1570.15 216.288 1568.81 199.167 1568.81 180.955H1569.64C1569.64 199.161 1570.98 216.278 1573.42 229.151C1576.9 247.563 1580.96 248.994 1582.12 248.994C1583.28 248.994 1587.34 247.563 1590.82 229.151C1593.26 216.278 1594.6 199.161 1594.6 180.955H1595.43C1595.43 199.167 1594.08 216.288 1591.65 229.167C1589.13 242.499 1585.92 249.258 1582.12 249.258Z" fill="#C40000"/>
<path d="M1621.01 181.613H1620.19C1620.19 144.429 1618.87 109.471 1616.46 83.1785C1613.02 45.5753 1609.02 42.6509 1607.87 42.6509C1606.72 42.6509 1602.72 45.5753 1599.28 83.1785C1596.87 109.471 1595.55 144.429 1595.55 181.613H1594.73C1594.73 144.419 1596.05 109.45 1598.46 83.1462C1600.95 55.9182 1604.11 42.1133 1607.87 42.1133C1611.63 42.1133 1614.79 55.9182 1617.28 83.1462C1619.69 109.45 1621.01 144.419 1621.01 181.613Z" fill="#C40000"/>
<path d="M1633.59 249.258C1629.79 249.258 1626.6 242.499 1624.09 229.167C1621.65 216.288 1620.32 199.167 1620.32 180.955H1621.15C1621.15 199.161 1622.48 216.278 1624.92 229.151C1628.38 247.563 1632.43 248.995 1633.59 248.995C1634.75 248.995 1638.8 247.563 1642.27 229.151C1644.7 216.278 1646.04 199.161 1646.04 180.955H1646.87C1646.87 199.167 1645.53 216.288 1643.1 229.167C1640.59 242.499 1637.39 249.258 1633.59 249.258H1633.59Z" fill="#C40000"/>
</svg>
