<svg width="1038" height="352" viewBox="0 0 1038 352" fill="none" xmlns="http://www.w3.org/2000/svg">
<path d="M34.3878 228.426H33.3435C33.3435 205.511 31.6622 183.967 28.6026 167.763C24.2271 144.589 19.1311 142.787 17.6796 142.787C16.2281 142.787 11.1216 144.589 6.74615 167.763C3.68646 183.967 2.0052 205.511 2.0052 228.426H0.960938C0.960938 205.504 2.6422 183.953 5.70189 167.743C8.866 150.963 12.8969 142.456 17.6796 142.456C22.4623 142.456 26.4827 150.963 29.6468 167.743C32.7065 183.953 34.3878 205.504 34.3878 228.426Z" fill="#C40000"/>
<path d="M50.0617 313.734C45.2894 313.734 41.2586 305.226 38.0945 288.446C35.0348 272.236 33.3535 250.686 33.3535 227.764H34.3978C34.3978 250.679 36.079 272.223 39.1387 288.426C43.5142 311.6 48.6102 313.403 50.0721 313.403C51.5341 313.403 56.6301 311.6 61.0056 288.426C64.0653 272.223 65.7465 250.679 65.7465 227.764H66.7908C66.7908 250.686 65.1095 272.236 62.0498 288.446C58.8857 305.226 54.8549 313.734 50.0826 313.734H50.0617Z" fill="#C40000"/>
<path d="M99.1171 228.26H98.0637C98.0637 173.069 96.3676 121.181 93.2916 82.1551C88.8988 26.3413 83.7791 22.0007 82.3148 22.0007C80.8505 22.0007 75.7308 26.3413 71.3275 82.1551C68.2514 121.181 66.5554 173.069 66.5554 228.26H65.502C65.502 173.053 67.198 121.149 70.274 82.1072C73.4554 41.6931 77.5111 21.2028 82.3148 21.2028C87.1185 21.2028 91.1637 41.6931 94.3556 82.1072C97.4316 121.149 99.1277 173.053 99.1277 228.26H99.1171Z" fill="#C40000"/>
<path d="M114.585 335.93C109.858 335.93 105.878 325.243 102.738 304.163C99.7116 283.798 98.043 256.725 98.043 227.929H99.0794C99.0794 256.717 100.748 283.782 103.775 304.138C108.096 333.25 113.144 335.514 114.585 335.514C116.025 335.514 121.062 333.25 125.395 304.138C128.421 283.782 130.09 256.717 130.09 227.929H131.126C131.126 256.725 129.458 283.798 126.431 304.163C123.301 325.243 119.311 335.93 114.585 335.93Z" fill="#C40000"/>
<path d="M163.669 228.592H162.62C162.62 199.186 160.921 171.54 157.848 150.747C153.443 121.009 148.314 118.696 146.856 118.696C145.398 118.696 140.259 121.009 135.864 150.747C132.791 171.54 131.092 199.186 131.092 228.592H130.043C130.043 199.177 131.742 171.523 134.815 150.721C138.004 129.188 142.052 118.271 146.856 118.271C151.659 118.271 155.708 129.188 158.896 150.721C161.97 171.523 163.669 199.177 163.669 228.592Z" fill="#C40000"/>
<path d="M179.47 313.734C174.687 313.734 170.656 305.226 167.482 288.446C164.422 272.236 162.73 250.685 162.73 227.763H163.775C163.775 250.679 165.466 272.223 168.526 288.426C172.912 311.6 178.018 313.402 179.47 313.402C180.922 313.402 186.038 311.6 190.414 288.426C193.474 272.223 195.165 250.679 195.165 227.763H196.21C196.21 250.685 194.518 272.236 191.458 288.446C188.284 305.226 184.253 313.734 179.47 313.734Z" fill="#C40000"/>
<path d="M228.541 228.426H227.496C227.496 205.511 225.815 183.967 222.766 167.763C218.401 144.589 213.315 142.787 211.853 142.787C210.391 142.787 205.306 144.589 200.941 167.763C197.892 183.967 196.21 205.511 196.21 228.426H195.166C195.166 205.504 196.847 183.953 199.907 167.743C203.071 150.963 207.091 142.456 211.864 142.456C216.636 142.456 220.656 150.963 223.821 167.743C226.87 183.953 228.562 205.504 228.562 228.426H228.541Z" fill="#C40000"/>
<path d="M244.218 342.556C239.487 342.556 235.502 331.213 232.366 308.839C229.343 287.226 227.666 258.492 227.666 227.929H228.701C228.701 258.483 230.368 287.208 233.39 308.813C237.717 339.711 242.758 342.114 244.208 342.114C245.657 342.114 250.698 339.711 255.025 308.813C258.048 287.208 259.714 258.483 259.714 227.929H260.749C260.749 258.492 259.083 287.226 256.05 308.839C252.913 331.213 248.928 342.556 244.197 342.556H244.218Z" fill="#C40000"/>
<path d="M293.277 228.592H292.228C292.228 184.968 290.538 143.956 287.463 113.11C283.066 68.9949 277.934 65.564 276.464 65.564C274.995 65.564 269.874 68.9949 265.476 113.11C262.401 143.956 260.712 184.968 260.712 228.592H259.662C259.662 184.956 261.352 143.931 264.437 113.072C267.617 81.1289 271.679 64.9333 276.475 64.9333C281.271 64.9333 285.333 81.1289 288.513 113.072C291.588 143.931 293.288 184.956 293.288 228.592H293.277Z" fill="#C40000"/>
<path d="M308.965 313.734C304.183 313.734 300.152 305.226 296.988 288.446C293.928 272.236 292.236 250.686 292.236 227.764H293.281C293.281 250.679 294.962 272.223 298.022 288.426C302.397 311.6 307.503 313.403 308.955 313.403C310.406 313.403 315.513 311.6 319.899 288.426C322.959 272.223 324.64 250.679 324.64 227.764H325.684C325.684 250.686 324.003 272.236 320.933 288.446C317.758 305.226 313.727 313.734 308.955 313.734H308.965Z" fill="#C40000"/>
<path d="M358.006 228.426H356.962C356.962 205.511 355.281 183.967 352.231 167.763C347.866 144.589 342.781 142.787 341.329 142.787C339.878 142.787 334.792 144.589 330.427 167.763C327.378 183.967 325.697 205.511 325.697 228.426H324.652C324.652 205.504 326.334 183.953 329.383 167.743C332.537 150.963 336.557 142.456 341.329 142.456C346.101 142.456 350.111 150.963 353.276 167.743C356.325 183.953 358.006 205.504 358.006 228.426Z" fill="#C40000"/>
<path d="M373.557 335.93C368.756 335.93 364.703 325.243 361.513 304.163C358.439 283.799 356.744 256.725 356.744 227.929H357.797C357.797 256.717 359.492 283.782 362.566 304.138C366.967 333.25 372.094 335.514 373.557 335.514C375.02 335.514 380.147 333.25 384.548 304.138C387.622 283.782 389.317 256.717 389.317 227.929H390.37C390.37 256.725 388.675 283.799 385.601 304.163C382.421 325.243 378.368 335.93 373.557 335.93Z" fill="#C40000"/>
<path d="M422.911 228.26H421.863C421.863 167.417 420.165 110.216 417.093 67.1938C412.691 5.66473 407.565 0.879616 406.098 0.879616C404.631 0.879616 399.505 5.66473 395.103 67.1938C392.021 110.216 390.333 167.417 390.333 228.26H389.285C389.285 167.4 390.983 110.181 394.054 67.1411C397.241 22.5885 401.297 0 406.098 0C410.899 0 414.955 22.5885 418.142 67.1411C421.223 110.181 422.911 167.4 422.911 228.26Z" fill="#C40000"/>
<path d="M438.488 313.734C433.695 313.734 429.664 305.226 426.49 288.446C423.42 272.236 421.738 250.685 421.738 227.763H422.783C422.783 250.679 424.474 272.223 427.534 288.426C431.92 311.6 437.026 313.402 438.488 313.402C439.95 313.402 445.057 311.6 449.443 288.426C452.513 272.223 454.194 250.679 454.194 227.763H455.238C455.238 250.685 453.546 272.236 450.487 288.446C447.312 305.226 443.271 313.734 438.488 313.734Z" fill="#C40000"/>
<path d="M487.6 228.426H486.556C486.556 205.51 484.874 183.966 481.815 167.763C477.45 144.589 472.354 142.787 470.892 142.787C469.43 142.787 464.344 144.589 459.969 167.763C456.909 183.966 455.228 205.51 455.228 228.426H454.184C454.184 205.504 455.865 183.953 458.925 167.743C462.089 150.963 466.109 142.456 470.881 142.456C475.654 142.456 479.674 150.963 482.849 167.743C485.908 183.953 487.59 205.504 487.59 228.426H487.6Z" fill="#C40000"/>
<path d="M503.263 313.734C498.491 313.734 494.46 305.226 491.296 288.446C488.236 272.236 486.555 250.685 486.555 227.763H487.599C487.599 250.679 489.28 272.223 492.34 288.426C496.715 311.6 501.801 313.402 503.263 313.402C504.725 313.402 509.81 311.6 514.186 288.426C517.246 272.223 518.927 250.679 518.927 227.763H519.971C519.971 250.685 518.29 272.236 515.23 288.446C512.066 305.226 508.046 313.734 503.273 313.734H503.263Z" fill="#C40000"/>
<path d="M552.532 228.592H551.482C551.482 190.178 549.791 154.064 546.714 126.902C542.314 88.056 537.189 85.035 535.719 85.035C534.249 85.035 529.124 88.056 524.724 126.902C521.647 154.064 519.956 190.178 519.956 228.592H518.906C518.906 190.167 520.597 154.042 523.674 126.869C526.856 98.7409 530.909 84.4796 535.709 84.4796C540.508 84.4796 544.561 98.7409 547.743 126.869C550.82 154.042 552.511 190.167 552.511 228.592H552.532Z" fill="#C40000"/>
<path d="M567.979 335.93C563.257 335.93 559.269 325.21 556.138 304.065C553.111 283.638 551.447 256.482 551.447 227.598H552.48C552.48 256.474 554.144 283.622 557.171 304.04C561.5 333.242 566.542 335.513 567.989 335.513C569.435 335.513 574.477 333.242 578.807 304.04C581.834 283.622 583.497 256.474 583.497 227.598H584.531C584.531 256.482 582.867 283.638 579.84 304.065C576.709 325.21 572.721 335.93 567.999 335.93H567.979Z" fill="#C40000"/>
<path d="M617.005 228.426H615.96C615.96 205.511 614.279 183.967 611.23 167.763C606.875 144.589 601.79 142.787 600.338 142.787C598.887 142.787 593.812 144.589 589.447 167.763C586.397 183.967 584.716 205.511 584.716 228.426H583.672C583.672 205.504 585.353 183.953 588.402 167.743C591.556 150.963 595.576 142.456 600.338 142.456C605.1 142.456 609.11 150.963 612.274 167.743C615.323 183.953 617.005 205.504 617.005 228.426Z" fill="#C40000"/>
<path d="M632.627 313.734C627.866 313.734 623.856 305.226 620.691 288.446C617.642 272.236 615.961 250.686 615.961 227.764H617.005C617.005 250.679 618.686 272.223 621.736 288.426C626.09 311.6 631.176 313.403 632.627 313.403C634.079 313.403 639.154 311.6 643.519 288.426C646.568 272.223 648.249 250.679 648.249 227.764H649.294C649.294 250.686 647.613 272.236 644.563 288.446C641.41 305.226 637.389 313.734 632.627 313.734Z" fill="#C40000"/>
<path d="M681.729 228.426H680.685C680.685 205.511 678.993 183.967 675.933 167.763C671.558 144.589 666.452 142.787 664.99 142.787C663.528 142.787 658.421 144.589 654.046 167.763C650.986 183.967 649.294 205.511 649.294 228.426H648.25C648.25 205.504 649.942 183.953 653.001 167.743C656.176 150.963 660.207 142.456 664.99 142.456C669.772 142.456 673.803 150.963 676.978 167.743C680.037 183.953 681.729 205.504 681.729 228.426Z" fill="#C40000"/>
<path d="M697.34 346.863C692.537 346.863 688.488 335.093 685.3 311.88C682.227 289.454 680.527 259.64 680.527 227.929H681.576C681.576 259.631 683.275 289.436 686.348 311.852C690.743 343.911 695.872 346.405 697.34 346.405C698.809 346.405 703.937 343.911 708.332 311.852C711.405 289.436 713.104 259.631 713.104 227.929H714.153C714.153 259.64 712.454 289.454 709.381 311.88C706.192 335.093 702.144 346.863 697.34 346.863Z" fill="#C40000"/>
<path d="M746.673 228.592H745.622C745.622 194.77 743.929 162.973 740.858 139.058C736.463 104.856 731.343 102.196 729.871 102.196C728.399 102.196 723.278 104.856 718.883 139.058C715.813 162.973 714.12 194.77 714.12 228.592H713.068C713.068 194.761 714.761 162.954 717.842 139.029C721.028 114.263 725.076 101.707 729.881 101.707C734.686 101.707 738.734 114.263 741.92 139.029C744.991 162.954 746.694 194.761 746.694 228.592H746.673Z" fill="#C40000"/>
<path d="M762.135 313.734C757.363 313.734 753.343 305.226 750.178 288.446C747.129 272.236 745.438 250.686 745.438 227.764H746.482C746.482 250.679 748.163 272.223 751.212 288.426C755.577 311.6 760.663 313.403 762.125 313.403C763.587 313.403 768.672 311.6 773.037 288.426C776.087 272.223 777.768 250.679 777.768 227.764H778.812C778.812 250.686 777.131 272.236 774.071 288.446C770.907 305.226 766.887 313.734 762.114 313.734H762.135Z" fill="#C40000"/>
<path d="M811.242 228.426H810.198C810.198 205.51 808.516 183.966 805.457 167.763C801.081 144.589 795.975 142.787 794.523 142.787C793.072 142.787 787.965 144.589 783.59 167.763C780.53 183.966 778.849 205.51 778.849 228.426H777.805C777.805 205.504 779.486 183.953 782.556 167.743C785.72 150.963 789.751 142.456 794.534 142.456C799.317 142.456 803.347 150.963 806.512 167.743C809.571 183.953 811.263 205.504 811.263 228.426H811.242Z" fill="#C40000"/>
<path d="M826.978 351.17C822.168 351.17 818.114 338.974 814.932 314.919C811.856 291.682 810.154 260.788 810.154 227.929H811.204C811.204 260.779 812.895 291.663 815.972 314.891C820.372 348.111 825.507 350.695 826.967 350.695C828.427 350.695 833.562 348.111 837.962 314.891C841.039 291.663 842.73 260.779 842.73 227.929H843.78C843.78 260.788 842.089 291.682 839.002 314.919C835.82 338.974 831.766 351.17 826.957 351.17H826.978Z" fill="#C40000"/>
<path d="M875.777 228.26H874.741C874.741 200.267 873.073 173.949 870.049 154.156C865.719 125.847 860.675 123.645 859.235 123.645C857.795 123.645 852.751 125.847 848.421 154.156C845.397 173.949 843.729 200.267 843.729 228.26H842.693C842.693 200.259 844.361 173.933 847.386 154.131C850.514 133.633 854.501 123.241 859.235 123.241C863.969 123.241 867.946 133.633 871.085 154.131C874.109 173.933 875.777 200.259 875.777 228.26Z" fill="#C40000"/>
<path d="M891.597 313.734C886.835 313.734 882.815 305.226 879.65 288.446C876.601 272.236 874.92 250.685 874.92 227.763H875.964C875.964 250.679 877.645 272.223 880.695 288.426C885.06 311.6 890.145 313.402 891.597 313.402C893.048 313.402 898.134 311.6 902.499 288.426C905.548 272.223 907.229 250.679 907.229 227.763H908.274C908.274 250.685 906.592 272.236 903.543 288.446C900.379 305.226 896.369 313.734 891.597 313.734Z" fill="#C40000"/>
<path d="M940.727 228.426H939.682C939.682 205.511 937.991 183.967 934.931 167.763C930.545 144.589 925.439 142.787 923.977 142.787C922.515 142.787 917.408 144.589 913.022 167.763C909.952 183.967 908.271 205.511 908.271 228.426H907.227C907.227 205.504 908.918 183.953 911.978 167.743C915.153 150.963 919.194 142.456 923.977 142.456C928.759 142.456 932.801 150.963 935.975 167.743C939.045 183.953 940.727 205.504 940.727 228.426Z" fill="#C40000"/>
<path d="M956.441 313.734C951.659 313.734 947.617 305.226 944.443 288.446C941.373 272.236 939.691 250.685 939.691 227.763H940.736C940.736 250.679 942.427 272.223 945.487 288.426C949.873 311.6 954.979 313.402 956.441 313.402C957.903 313.402 963.01 311.6 967.396 288.426C970.466 272.223 972.147 250.679 972.147 227.763H973.191C973.191 250.685 971.5 272.236 968.44 288.446C965.265 305.226 961.224 313.734 956.441 313.734Z" fill="#C40000"/>
<path d="M1005.4 228.592H1004.36C1004.36 181.789 1002.7 137.788 999.668 104.694C995.336 57.3642 990.302 53.6833 988.854 53.6833C987.407 53.6833 982.372 57.3642 978.04 104.694C975.011 137.788 973.346 181.789 973.346 228.592H972.312C972.312 181.776 973.977 137.761 977.006 104.654C980.139 70.3825 984.119 53.0067 988.854 53.0067C993.589 53.0067 997.559 70.3825 1000.7 104.654C1003.73 137.761 1005.4 181.776 1005.4 228.592Z" fill="#C40000"/>
<path d="M1021.22 313.734C1016.45 313.734 1012.43 305.226 1009.26 288.446C1006.2 272.236 1004.52 250.685 1004.52 227.763H1005.57C1005.57 250.679 1007.25 272.223 1010.31 288.426C1014.67 311.6 1019.77 313.402 1021.23 313.402C1022.69 313.402 1027.78 311.6 1032.15 288.426C1035.21 272.223 1036.89 250.679 1036.89 227.763H1037.94C1037.94 250.685 1036.26 272.236 1033.2 288.446C1030.03 305.226 1026.01 313.734 1021.23 313.734H1021.22Z" fill="#C40000"/>
</svg>
