<svg width="245" height="280" viewBox="0 0 245 280" fill="none" xmlns="http://www.w3.org/2000/svg">
<line x1="34.5" y1="1" x2="34.5" y2="280" stroke="#8383AD"/>
<line x1="1" y1="279.5" x2="244" y2="279.5" stroke="#8383AD"/>
<line x1="104.5" y1="1" x2="104.5" y2="280" stroke="#8383AD"/>
<line x1="1" y1="209.5" x2="244" y2="209.5" stroke="#8383AD"/>
<line x1="1" y1="35.5" x2="244" y2="35.5" stroke="#8383AD"/>
<line x1="174.5" y1="1" x2="174.5" y2="280" stroke="#8383AD"/>
<line x1="1" y1="139.5" x2="244" y2="139.5" stroke="#8383AD"/>
<line x1="69.5" y1="1" x2="69.5" y2="280" stroke="#8383AD"/>
<line x1="1" y1="244.5" x2="244" y2="244.5" stroke="#8383AD"/>
<line x1="1" y1="70.5" x2="244" y2="70.5" stroke="#8383AD"/>
<line x1="139.5" y1="1" x2="139.5" y2="280" stroke="#8383AD"/>
<line x1="1" y1="174.5" x2="244" y2="174.5" stroke="#8383AD"/>
<line x1="-2.46136e-08" y1="0.5" x2="245" y2="0.499988" stroke="#8383AD"/>
<line x1="209.5" y1="1" x2="209.5" y2="280" stroke="#8383AD"/>
<line x1="244.5" y1="1" x2="244.5" y2="280" stroke="#8383AD"/>
<line x1="0.5" y1="1" x2="0.5" y2="280" stroke="#8383AD"/>
<line x1="1" y1="104.5" x2="244" y2="104.5" stroke="#8383AD"/>
</svg>
